<?xml version="1.0" encoding="utf-8"?>
<!-- Generator: Adobe Illustrator 15.1.0, SVG Export Plug-In . SVG Version: 6.00 Build 0)  -->
<!DOCTYPE svg PUBLIC "-//W3C//DTD SVG 1.1//EN" "http://www.w3.org/Graphics/SVG/1.1/DTD/svg11.dtd">
<svg version="1.1" id="Ebene_1" xmlns="http://www.w3.org/2000/svg" xmlns:xlink="http://www.w3.org/1999/xlink" x="0px" y="0px"
	 width="100px" height="100px" viewBox="0 0 100 100" enable-background="new 0 0 100 100" xml:space="preserve">
<g>
	<path d="M39.426,59.144l-1.9-0.105h-1.103l-0.05,6.506l0.05,3.448h-1.374l0.101-3.331l-0.084-6.623h-1.104l-1.935,0.105
		l-0.084-0.137l0.101-1.073h7.382l0.103,0.137L39.426,59.144z"/>
	<path d="M48.251,68.992h-6.108l0.084-3.331l-0.084-7.728h6.125l0.068,0.137l-0.103,1.073l-2.561-0.055l-2.157,0.036l-0.034,3.625
		l2.038,0.033l1.797-0.055l0.103,0.123l-0.119,1.068L45.4,63.887l-1.935,0.016l-0.017,1.642L43.5,67.84l2.154,0.015l2.613-0.072
		l0.084,0.14L48.251,68.992z"/>
	<path d="M58.926,68.992h-1.645l-0.475-0.896l-2.514-3.776l-2.594,3.863l-0.444,0.81h-1.441l3.683-5.59l-3.545-5.469h1.645
		l0.441,0.879l2.341,3.539l2.36-3.554l0.44-0.864h1.478l-3.445,5.3L58.926,68.992z"/>
	<path d="M67.955,59.144l-1.9-0.105h-1.102L64.9,65.544l0.053,3.448h-1.376l0.101-3.331l-0.084-6.623H62.49l-1.936,0.105
		l-0.084-0.137l0.101-1.073h7.384l0.102,0.137L67.955,59.144z"/>
</g>
<g>
	<path d="M67.199,36.698"/>
	<path d="M32.802,37.167c-0.019,0.361,0.125,0.863,0.922,1.201l8.785,4.713l-0.015-2.04l-6.625-3.706l0.043-0.021l6.582-3.176
		l0.035-1.976l-8.668,3.896C33.229,36.244,32.833,36.657,32.802,37.167z"/>
	<path fill="#1A171B" d="M48.137,44.469c1.005,1.251,2.539,1.412,3.765,1.412c0.456,0,0.897-0.025,1.323-0.049
		c0.359-0.021,0.699-0.04,1.004-0.041l0.004-1.928c-0.31,0.001-0.649,0.031-1.01,0.062c-0.402,0.036-0.818,0.072-1.229,0.072
		c-0.697,0-1.697-0.095-2.331-0.918c-0.454-0.593-0.454-1.631-0.454-3.067v-6.646h0.025l4.262,0.008
		c0.248,0,0.487-0.096,0.672-0.271c0.195-0.193,0.303-0.45,0.303-0.722c0-0.544-0.443-0.985-0.988-0.985l-4.273-0.003v-3.952
		l-1.941,0.944v3.003l-1.702-0.003c-0.013-0.001-0.024-0.001-0.036-0.001c-0.245,0-0.479,0.096-0.66,0.269
		c-0.19,0.184-0.3,0.442-0.303,0.71l0.001,0.005c0,0.55,0.443,0.991,0.986,0.991h1.713v6.597
		C47.268,42.017,47.416,43.573,48.137,44.469z"/>
	<path d="M66.617,38.074c0.02-0.36-0.125-0.86-0.922-1.197l-8.786-4.711l0.017,2.037l6.625,3.703l-0.043,0.021l-6.582,3.183
		l0.012,2.022l8.621-3.946C66.193,38.999,66.587,38.583,66.617,38.074z"/>
</g>
</svg>
