<?xml version="1.0" encoding="utf-8"?>
<!-- Generator: Adobe Illustrator 16.0.0, SVG Export Plug-In . SVG Version: 6.00 Build 0)  -->
<!DOCTYPE svg PUBLIC "-//W3C//DTD SVG 1.1//EN" "http://www.w3.org/Graphics/SVG/1.1/DTD/svg11.dtd">
<svg version="1.1" id="Ebene_1" xmlns="http://www.w3.org/2000/svg" xmlns:xlink="http://www.w3.org/1999/xlink" x="0px" y="0px"
	 width="100px" height="100px" viewBox="0 0 100 100" enable-background="new 0 0 100 100" xml:space="preserve">
<g id="XMLID_1_">
	<g>
		<path fill="none" stroke="#ffffff" stroke-width="2" stroke-miterlimit="10" d="M53.846,86.678h-1.261h-13.75h-0.02
			c-5.5,0-12.25-3.9-15-8.66l-11.17-19.359c-2.75-4.761-2.75-12.55,0-17.32l0.25-0.44"/>
		<path fill="none" stroke="#ffffff" stroke-width="2" stroke-miterlimit="10" d="M76.176,21.978l0.14,0.25l3.53,6.11l0.489,0.85
			l2.971,5.15l4.05,7c2.75,4.77,2.75,12.56,0,17.32l-11.18,19.359c-2.75,4.76-9.5,8.66-15,8.66h-0.511h-6.75"/>
		<line fill="none" stroke="#ffffff" stroke-width="2" stroke-miterlimit="10" x1="16.945" y1="33.898" x2="23.815" y2="21.978"/>
		<polyline fill="none" stroke="#ffffff" stroke-width="2" stroke-miterlimit="10" points="12.925,40.848 16.315,34.988
			16.825,34.098 		"/>
		<path fill="none" stroke="#ffffff" stroke-width="2" stroke-miterlimit="10" d="M23.815,21.978c2.75-4.76,9.5-8.66,15-8.66h22.36
			c5.5,0,12.25,3.9,15,8.66"/>
		<path fill="none" stroke="#ffffff" stroke-width="2" stroke-miterlimit="10" d="M17.806,36.038c-1.04,0.7-2.01,1.48-2.86,2.33
			c-0.78,0.78-1.46,1.61-2.02,2.48c-0.01,0.01-0.02,0.03-0.03,0.05c-0.09,0.14-0.18,0.29-0.27,0.44"/>
		<path fill="none" stroke="#ffffff" stroke-width="2" stroke-miterlimit="10" d="M87.346,41.338c-0.601-1.03-1.38-2.03-2.3-2.95
			c-0.841-0.84-1.801-1.62-2.82-2.32c-1.32-0.9-2.76-1.66-4.23-2.23c-1.89-0.73-3.84-1.16-5.649-1.16h-22.36h-22.36
			c-1.8,0-3.72,0.42-5.6,1.14"/>
		<path fill="none" stroke="#ffffff" stroke-width="2" stroke-miterlimit="10" d="M21.845,29.038c3.01-2.04,6.63-3.36,9.83-3.36
			h22.32h14.311c3.22,0,6.859,1.33,9.88,3.39c1.21,0.83,2.32,1.77,3.26,2.78c0.73,0.79,1.36,1.63,1.86,2.49"/>
		<path fill="none" stroke="#ffffff" stroke-width="2" stroke-miterlimit="10" d="M16.675,34.338c0.05-0.08,0.1-0.16,0.15-0.24
			c0.04-0.07,0.08-0.14,0.12-0.2c0.46-0.73,1.01-1.43,1.65-2.1"/>
		<path fill="none" stroke="#ffffff" stroke-width="2" stroke-miterlimit="10" d="M20.175,28.338c0.59-1.02,1.36-2,2.27-2.91
			c3.31-3.34,8.41-5.75,12.73-5.75h21.82h7.851c4.31,0,9.399,2.4,12.72,5.73c0.91,0.92,1.69,1.9,2.28,2.93"/>
		<path fill="none" stroke="#ffffff" stroke-width="2" stroke-miterlimit="10" d="M60.665,86.678c0.181,0.01,0.351,0.01,0.521,0.01"
			/>
		<path fill="none" stroke="#ffffff" stroke-width="2" stroke-miterlimit="10" d="M54.025,84.878c1.13,0.54,2.3,0.99,3.47,1.29"/>
		<path fill="none" stroke="#ffffff" stroke-width="2" stroke-miterlimit="10" d="M23.835,21.988c-0.59,1.03-1.06,2.19-1.39,3.44
			c-0.31,1.15-0.52,2.37-0.6,3.61c-0.13,1.59-0.07,3.22,0.18,4.78c0.29,2.02,0.9,3.92,1.81,5.49l11.17,19.36l11.17,19.359
			c0.9,1.57,2.23,3.03,3.81,4.301"/>
		<path fill="none" stroke="#ffffff" stroke-width="2" stroke-miterlimit="10" d="M26.936,58.708l4.03,6.96l-11.17-19.36
			c-1.61-2.79-2.28-6.62-1.99-10.27c0.1-1.47,0.36-2.91,0.79-4.24c0.31-1.01,0.71-1.96,1.2-2.81"/>
		<path fill="none" stroke="#ffffff" stroke-width="2" stroke-miterlimit="10" d="M45.945,84.878c-3.28-1.59-6.24-4.07-7.84-6.851
			l-7.14-12.359"/>
		<path fill="none" stroke="#ffffff" stroke-width="2" stroke-miterlimit="10" d="M53.105,86.688c-0.17,0-0.34,0-0.521-0.01
			c-0.85-0.04-1.729-0.16-2.62-0.37"/>
		<path fill="none" stroke="#ffffff" stroke-width="2" stroke-miterlimit="10" d="M27.505,71.668l-3.55-6.141l-7.64-13.22
			c-2.17-3.75-2.63-9.39-1.37-13.94c0.33-1.22,0.79-2.37,1.37-3.38"/>
		<line fill="none" stroke="#ffffff" stroke-width="2" stroke-miterlimit="10" x1="20.255" y1="59.107" x2="23.956" y2="65.527"/>
		<path fill="none" stroke="#ffffff" stroke-width="2" stroke-miterlimit="10" d="M42.505,86.147c-4.56-1.189-9.2-4.41-11.36-8.149
			l-7.19-12.471"/>
		<path fill="none" stroke="#ffffff" stroke-width="2" stroke-miterlimit="10" d="M78.186,29.068c-0.09-1.26-0.29-2.5-0.62-3.66
			c-0.3-1.14-0.71-2.22-1.25-3.18c-0.03-0.09-0.08-0.17-0.13-0.26"/>
		<path fill="none" stroke="#ffffff" stroke-width="2" stroke-miterlimit="10" d="M38.835,86.668c1.18,0,2.43-0.181,3.67-0.521
			c1.16-0.3,2.32-0.729,3.44-1.27c1.43-0.69,2.81-1.561,4.04-2.55c1.59-1.271,2.94-2.74,3.85-4.32l11.171-19.35l11.18-19.371
			c0.899-1.56,1.5-3.45,1.81-5.45"/>
		<path fill="none" stroke="#ffffff" stroke-width="2" stroke-miterlimit="10" d="M82.226,36.068c0.27,3.62-0.391,7.42-1.98,10.19
			l-7.149,12.4l-4.021,6.96l-7.16,12.39c-1.609,2.79-4.59,5.28-7.89,6.87c-1.32,0.63-2.7,1.12-4.06,1.43
			c-1.04,0.23-2.07,0.36-3.06,0.36"/>
		<path fill="none" stroke="#ffffff" stroke-width="2" stroke-miterlimit="10" d="M80.226,28.968c0.04,0.07,0.08,0.15,0.109,0.22
			c0.461,0.81,0.83,1.71,1.11,2.66"/>
		<path fill="none" stroke="#ffffff" stroke-width="2" stroke-miterlimit="10" d="M53.915,86.678c-0.02,0-0.05,0-0.069,0"/>
		<path fill="none" stroke="#ffffff" stroke-width="2" stroke-miterlimit="10" d="M83.676,35.008c0.58,1.01,1.04,2.15,1.37,3.38
			c1.26,4.55,0.8,10.18-1.37,13.94l-10.91,18.89l-3.92,6.8c-2.16,3.74-6.79,6.95-11.351,8.15"/>
	</g>
</g>
</svg>
